<svg width="197" height="192" viewBox="0 0 197 192" fill="none" xmlns="http://www.w3.org/2000/svg">
<g filter="url(#filter0_i_1012_68)">
<path d="M127.135 33C125.407 36.5412 123.596 40.3706 121.704 44.4882C119.893 48.6059 118.124 52.6412 116.396 56.5941C114.75 60.5471 113.187 64.2941 111.706 67.8353C110.225 71.3765 108.99 74.3824 108.003 76.8529C107.18 78.8294 106.069 81.5471 104.67 85.0059C103.354 88.3824 101.831 92.2118 100.103 96.4941C98.4574 100.694 96.6882 105.182 94.7956 109.959C92.903 114.653 91.0515 119.306 89.2412 123.918C84.8799 134.788 80.2307 146.482 75.2934 159H51.8414C47.0687 147.059 42.584 135.776 38.3873 125.153C36.577 120.624 34.7255 116.012 32.8329 111.318C30.9402 106.624 29.1299 102.135 27.4019 97.8529C25.7561 93.4882 24.1926 89.4941 22.7115 85.8706C21.3126 82.2471 20.1194 79.2412 19.1319 76.8529C18.1445 74.3824 16.9102 71.3765 15.429 67.8353C13.9478 64.2118 12.3432 60.4235 10.6151 56.4706C8.88709 52.5177 7.1179 48.5235 5.30757 44.4882C3.49723 40.3706 1.72805 36.5412 0 33H25.9207L63.5674 134.294L101.214 33H127.135Z" fill="#9BB7D4" fill-opacity="0.2"/>
<path d="M183 33C181.272 36.5412 179.462 40.3706 177.569 44.4882C175.759 48.6059 173.989 52.6412 172.261 56.5941C170.616 60.5471 169.052 64.2941 167.571 67.8353C166.09 71.3765 164.856 74.3824 163.868 76.8529C163.045 78.8294 161.934 81.5471 160.535 85.0059C159.219 88.3824 157.696 92.2118 155.968 96.4941C154.323 100.694 152.553 105.182 150.661 109.959C148.768 114.653 146.917 119.306 145.106 123.918C140.745 134.788 136.096 146.482 131.159 159H107.707C102.934 147.059 98.4492 135.776 94.2525 125.153C92.4422 120.624 90.5907 116.012 88.6981 111.318C86.8055 106.624 84.9951 102.135 83.2671 97.8529C81.6213 93.4882 80.0579 89.4941 78.5767 85.8706C77.1778 82.2471 75.9846 79.2412 74.9972 76.8529C74.0097 74.3824 72.7754 71.3765 71.2942 67.8353C69.813 64.2118 68.2084 60.4235 66.4804 56.4706C64.7523 52.5177 62.9831 48.5235 61.1728 44.4882C59.3625 40.3706 57.5933 36.5412 55.8652 33H81.7859L119.433 134.294L138.256 83.6471L157.079 33H183Z" fill="#9BB7D4"/>
</g>
<defs>
<filter id="filter0_i_1012_68" x="0" y="33" width="183" height="127" filterUnits="userSpaceOnUse" color-interpolation-filters="sRGB">
<feFlood flood-opacity="0" result="BackgroundImageFix"/>
<feBlend mode="normal" in="SourceGraphic" in2="BackgroundImageFix" result="shape"/>
<feColorMatrix in="SourceAlpha" type="matrix" values="0 0 0 0 0 0 0 0 0 0 0 0 0 0 0 0 0 0 127 0" result="hardAlpha"/>
<feOffset dy="1"/>
<feGaussianBlur stdDeviation="0.5"/>
<feComposite in2="hardAlpha" operator="arithmetic" k2="-1" k3="1"/>
<feColorMatrix type="matrix" values="0 0 0 0 0 0 0 0 0 0 0 0 0 0 0 0 0 0 0.25 0"/>
<feBlend mode="normal" in2="shape" result="effect1_innerShadow_1012_68"/>
</filter>
</defs>
</svg>
