<svg width="106" height="40" viewBox="0 0 106 40" fill="none" xmlns="http://www.w3.org/2000/svg">
<g filter="url(#filter0_i_1009_58)">
<path d="M25.1465 14.1602C24.8047 14.86 24.4466 15.6169 24.0723 16.4307C23.7142 17.2445 23.3643 18.042 23.0225 18.8232C22.6969 19.6045 22.3877 20.3451 22.0947 21.0449C21.8018 21.7448 21.5576 22.3389 21.3623 22.8271C21.1995 23.2178 20.9798 23.7549 20.7031 24.4385C20.4427 25.1058 20.1416 25.8626 19.7998 26.709C19.4743 27.5391 19.1243 28.4261 18.75 29.3701C18.3757 30.2979 18.0094 31.2174 17.6514 32.1289C16.7887 34.2773 15.8691 36.5885 14.8926 39.0625H10.2539C9.3099 36.7025 8.42285 34.4727 7.59277 32.373C7.2347 31.4779 6.86849 30.5664 6.49414 29.6387C6.11979 28.7109 5.76172 27.8239 5.41992 26.9775C5.0944 26.1149 4.78516 25.3255 4.49219 24.6094C4.21549 23.8932 3.97949 23.2992 3.78418 22.8271C3.58887 22.3389 3.34473 21.7448 3.05176 21.0449C2.75879 20.3288 2.44141 19.5801 2.09961 18.7988C1.75781 18.0176 1.40788 17.2282 1.0498 16.4307C0.691732 15.6169 0.341797 14.86 0 14.1602H5.12695L12.5732 34.1797L20.0195 14.1602H25.1465Z" fill="#9BB7D4" fill-opacity="0.2"/>
<path d="M39.4707 27.2217C39.5195 28.654 39.7393 29.8991 40.1299 30.957C40.5368 32.015 41.082 32.8939 41.7656 33.5938C42.4655 34.2773 43.2793 34.79 44.207 35.1318C45.151 35.4736 46.1764 35.6445 47.2832 35.6445C48.862 35.6445 50.4082 35.4655 51.9219 35.1074C53.4355 34.7493 54.9411 34.1146 56.4385 33.2031L56.9268 37.2314C56.0641 37.6709 55.2178 38.0452 54.3877 38.3545C53.5576 38.6637 52.7275 38.916 51.8975 39.1113C51.0674 39.3066 50.221 39.445 49.3584 39.5264C48.512 39.624 47.6169 39.6729 46.6729 39.6729C45.1104 39.6729 43.6211 39.4043 42.2051 38.8672C40.7891 38.3138 39.5439 37.5081 38.4697 36.4502C37.3955 35.376 36.541 34.0495 35.9062 32.4707C35.2715 30.8919 34.9541 29.0609 34.9541 26.9775C34.9541 24.9593 35.2227 23.1364 35.7598 21.5088C36.3132 19.8649 37.0944 18.4652 38.1035 17.3096C39.1126 16.1377 40.3415 15.2425 41.79 14.624C43.2386 13.9893 44.8662 13.6719 46.6729 13.6719C48.0075 13.6719 49.1875 13.8346 50.2129 14.1602C51.2383 14.4694 52.1253 14.9089 52.874 15.4785C53.6227 16.0319 54.2493 16.6829 54.7539 17.4316C55.2585 18.1803 55.6572 18.986 55.9502 19.8486C56.2594 20.7113 56.4792 21.6146 56.6094 22.5586C56.7396 23.4863 56.8047 24.4059 56.8047 25.3174V26.2695C56.8047 26.6764 56.7965 26.9938 56.7803 27.2217H39.4707ZM46.3066 17.334C44.5163 17.334 43.0514 17.863 41.9121 18.9209C40.7728 19.9626 40.0241 21.5902 39.666 23.8037H52.4102C52.4102 22.762 52.2555 21.8424 51.9463 21.0449C51.6533 20.2311 51.2301 19.5475 50.6768 18.9941C50.1396 18.4408 49.4967 18.0257 48.748 17.749C47.9993 17.4723 47.1855 17.334 46.3066 17.334Z" fill="#9BB7D4"/>
<path d="M63.2285 27.2217C63.2773 28.654 63.4971 29.8991 63.8877 30.957C64.2946 32.015 64.8398 32.8939 65.5234 33.5938C66.2233 34.2773 67.0371 34.79 67.9648 35.1318C68.9089 35.4736 69.9342 35.6445 71.041 35.6445C72.6198 35.6445 74.166 35.4655 75.6797 35.1074C77.1934 34.7493 78.6989 34.1146 80.1963 33.2031L80.6846 37.2314C79.8219 37.6709 78.9756 38.0452 78.1455 38.3545C77.3154 38.6637 76.4854 38.916 75.6553 39.1113C74.8252 39.3066 73.9788 39.445 73.1162 39.5264C72.2699 39.624 71.3747 39.6729 70.4307 39.6729C68.8682 39.6729 67.3789 39.4043 65.9629 38.8672C64.5469 38.3138 63.3018 37.5081 62.2275 36.4502C61.1533 35.376 60.2988 34.0495 59.6641 32.4707C59.0293 30.8919 58.7119 29.0609 58.7119 26.9775C58.7119 24.9593 58.9805 23.1364 59.5176 21.5088C60.071 19.8649 60.8522 18.4652 61.8613 17.3096C62.8704 16.1377 64.0993 15.2425 65.5479 14.624C66.9964 13.9893 68.624 13.6719 70.4307 13.6719C71.7653 13.6719 72.9453 13.8346 73.9707 14.1602C74.9961 14.4694 75.8831 14.9089 76.6318 15.4785C77.3805 16.0319 78.0072 16.6829 78.5117 17.4316C79.0163 18.1803 79.415 18.986 79.708 19.8486C80.0173 20.7113 80.237 21.6146 80.3672 22.5586C80.4974 23.4863 80.5625 24.4059 80.5625 25.3174V26.2695C80.5625 26.6764 80.5544 26.9938 80.5381 27.2217H63.2285ZM70.0645 17.334C68.2741 17.334 66.8092 17.863 65.6699 18.9209C64.5306 19.9626 63.7819 21.5902 63.4238 23.8037H76.168C76.168 22.762 76.0133 21.8424 75.7041 21.0449C75.4111 20.2311 74.988 19.5475 74.4346 18.9941C73.8975 18.4408 73.2546 18.0257 72.5059 17.749C71.7572 17.4723 70.9434 17.334 70.0645 17.334Z" fill="#9BB7D4"/>
<path d="M87.207 0V18.9209C87.7767 18.1722 88.3952 17.4805 89.0625 16.8457C89.7298 16.2109 90.446 15.6576 91.2109 15.1855C91.9922 14.7135 92.8304 14.3473 93.7256 14.0869C94.6208 13.8102 95.5811 13.6719 96.6064 13.6719C97.8434 13.6719 98.9746 13.973 100 14.5752C101.025 15.1774 101.912 16.0238 102.661 17.1143C103.41 18.1885 103.988 19.4743 104.395 20.9717C104.818 22.4691 105.029 24.1048 105.029 25.8789C105.029 27.9785 104.744 29.8747 104.175 31.5674C103.621 33.2601 102.832 34.7087 101.807 35.9131C100.781 37.1175 99.5361 38.0452 98.0713 38.6963C96.6227 39.3473 94.9951 39.6729 93.1885 39.6729C92.1956 39.6729 91.2354 39.5996 90.3076 39.4531C89.3799 39.3229 88.4766 39.152 87.5977 38.9404C86.735 38.7126 85.8968 38.4766 85.083 38.2324C84.2692 37.972 83.4717 37.7197 82.6904 37.4756V8.59375C82.6904 7.55208 82.6742 6.51042 82.6416 5.46875C82.6253 4.41081 82.5928 3.40983 82.5439 2.46582C82.4951 1.50553 82.4219 0.683594 82.3242 0H87.207ZM87.207 34.5459C87.8092 34.79 88.3545 35.0016 88.8428 35.1807C89.3473 35.3434 89.8356 35.4818 90.3076 35.5957C90.7796 35.6934 91.2435 35.7666 91.6992 35.8154C92.1712 35.8643 92.6676 35.8887 93.1885 35.8887C94.2627 35.8887 95.2555 35.6689 96.167 35.2295C97.0785 34.79 97.8597 34.1715 98.5107 33.374C99.1781 32.5765 99.6989 31.6162 100.073 30.4932C100.448 29.3538 100.635 28.1006 100.635 26.7334C100.635 25.3825 100.513 24.1618 100.269 23.0713C100.024 21.9808 99.6663 21.0612 99.1943 20.3125C98.7386 19.5475 98.1689 18.9616 97.4854 18.5547C96.8018 18.1478 96.0205 17.9443 95.1416 17.9443C94.3766 17.9443 93.6117 18.1152 92.8467 18.457C92.0817 18.7826 91.3493 19.2464 90.6494 19.8486C89.9658 20.4508 89.3229 21.1751 88.7207 22.0215C88.1185 22.8516 87.6139 23.7712 87.207 24.7803V34.5459Z" fill="#9BB7D4"/>
<path d="M36.1963 14.1602C35.8545 14.86 35.4964 15.6169 35.1221 16.4307C34.764 17.2445 34.4141 18.042 34.0723 18.8232C33.7467 19.6045 33.4375 20.3451 33.1445 21.0449C32.8516 21.7448 32.6074 22.3389 32.4121 22.8271C32.2493 23.2178 32.0296 23.7549 31.7529 24.4385C31.4925 25.1058 31.1914 25.8626 30.8496 26.709C30.5241 27.5391 30.1742 28.4261 29.7998 29.3701C29.4255 30.2979 29.0592 31.2174 28.7012 32.1289C27.8385 34.2773 26.9189 36.5885 25.9424 39.0625H21.3037C20.3597 36.7025 19.4727 34.4727 18.6426 32.373C18.2845 31.4779 17.9183 30.5664 17.5439 29.6387C17.1696 28.7109 16.8115 27.8239 16.4697 26.9775C16.1442 26.1149 15.835 25.3255 15.542 24.6094C15.2653 23.8932 15.0293 23.2992 14.834 22.8271C14.6387 22.3389 14.3945 21.7448 14.1016 21.0449C13.8086 20.3288 13.4912 19.5801 13.1494 18.7988C12.8076 18.0176 12.4577 17.2282 12.0996 16.4307C11.7415 15.6169 11.3916 14.86 11.0498 14.1602H16.1768L23.623 34.1797L27.3462 24.1699L31.0693 14.1602H36.1963Z" fill="#9BB7D4"/>
</g>
<defs>
<filter id="filter0_i_1009_58" x="0" y="0" width="105.029" height="40.6729" filterUnits="userSpaceOnUse" color-interpolation-filters="sRGB">
<feFlood flood-opacity="0" result="BackgroundImageFix"/>
<feBlend mode="normal" in="SourceGraphic" in2="BackgroundImageFix" result="shape"/>
<feColorMatrix in="SourceAlpha" type="matrix" values="0 0 0 0 0 0 0 0 0 0 0 0 0 0 0 0 0 0 127 0" result="hardAlpha"/>
<feOffset dy="1"/>
<feGaussianBlur stdDeviation="0.5"/>
<feComposite in2="hardAlpha" operator="arithmetic" k2="-1" k3="1"/>
<feColorMatrix type="matrix" values="0 0 0 0 0 0 0 0 0 0 0 0 0 0 0 0 0 0 0.25 0"/>
<feBlend mode="normal" in2="shape" result="effect1_innerShadow_1009_58"/>
</filter>
</defs>
</svg>
